<?xml version="1.0" encoding="iso-8859-1"?>
<!-- Generator: Adobe Illustrator 16.0.0, SVG Export Plug-In . SVG Version: 6.00 Build 0)  -->
<!DOCTYPE svg PUBLIC "-//W3C//DTD SVG 1.1//EN" "http://www.w3.org/Graphics/SVG/1.1/DTD/svg11.dtd">
<svg version="1.1" id="&#x5716;&#x5C64;_1" xmlns="http://www.w3.org/2000/svg" xmlns:xlink="http://www.w3.org/1999/xlink" x="0px"
	 y="0px" width="85.04px" height="85.04px" viewBox="0 0 85.04 85.04" style="enable-background:new 0 0 85.04 85.04;"
	 xml:space="preserve">
<path style="fill:#FFFFFF;" d="M79.746,26.573c-6.918,0.316-24.546,5.475-32.786,7.989c2.151-1.394,4.303-2.79,6.452-4.185
	c0.459-0.297,0.835-0.814,0.798-1.39c-0.193-3.03-0.39-6.06-0.583-9.089c1.894-1.863,3.788-3.726,5.682-5.589
	c0.625-0.616,0.616-1.659,0-2.276c-0.624-0.623-1.651-0.614-2.276,0c-1.886,1.857-3.774,3.714-5.661,5.572
	c-0.464,0.457-1.051,0.926-1.003,1.66c0.019,0.284,0.036,0.569,0.056,0.854c0.1,1.565,0.199,3.131,0.301,4.698
	c0.07,1.112,0.143,2.223,0.213,3.335c-1.243,0.807-2.487,1.613-3.731,2.42c0.094-0.376,0.146-0.771,0.146-1.177
	c0-2.297-1.604-4.217-3.754-4.707l-1.073-12.99l-1.073,12.99c-2.149,0.489-3.754,2.41-3.754,4.707c0,0.405,0.05,0.801,0.145,1.177
	c-1.244-0.807-2.488-1.613-3.732-2.42c0.152-2.382,0.306-4.762,0.458-7.143c0.067-1.04,0.352-2.182-0.478-2.998
	c-0.967-0.952-1.935-1.904-2.902-2.856c-1.057-1.04-2.115-2.081-3.172-3.122c-0.625-0.614-1.652-0.623-2.275,0
	c-0.616,0.617-0.625,1.66,0,2.276c1.893,1.863,3.787,3.727,5.681,5.589c-0.194,3.03-0.389,6.06-0.583,9.089
	c-0.037,0.576,0.339,1.093,0.797,1.39c2.15,1.395,4.302,2.791,6.452,4.185c-8.24-2.514-25.868-7.673-32.785-7.989
	c-9.168-0.419,0.489,9.602,6.45,14.655c3.907,3.312,15.886,0,23.675-2.674c-2.228,1.578-4.457,3.156-6.685,4.734
	c-1.556,1.103-3.112,2.206-4.669,3.307c-0.953,0.677-0.916,2.018-1.09,3.074c-0.275,1.662-0.551,3.325-0.826,4.987
	c-0.21,1.271-0.42,2.54-0.63,3.81c-2.417,0.853-4.832,1.703-7.248,2.556c-0.827,0.291-1.369,1.089-1.124,1.979
	c0.22,0.801,1.152,1.415,1.979,1.124c2.748-0.97,5.495-1.938,8.244-2.906c0.495-0.175,1.03-0.56,1.124-1.124
	c0.617-3.728,1.234-7.455,1.851-11.183c3.455-2.448,6.908-4.895,10.361-7.341c-1.34,2.095-2.679,4.192-4.02,6.288
	c-1.24,1.939-2.48,3.879-3.721,5.818c-0.282,0.441-0.397,0.899-0.286,1.446c0.054,0.265,0.108,0.527,0.162,0.792
	c0.285,1.39,0.57,2.779,0.854,4.17c0.477,2.327,0.954,4.656,1.43,6.983c-2.222,2.467-4.443,4.935-6.664,7.401
	c-0.586,0.65-0.645,1.631,0,2.274c0.595,0.597,1.688,0.652,2.275,0c1.765-1.96,3.529-3.919,5.294-5.879
	c0.655-0.728,1.31-1.454,1.964-2.182c0.542-0.602,0.483-1.252,0.339-1.953c-0.101-0.489-0.201-0.979-0.301-1.471
	c-0.7-3.419-1.4-6.837-2.101-10.256c2.017-3.153,4.033-6.307,6.05-9.461l1.168,15.453c0.146,1.923,1.647,3.364,3.365,3.364
	s3.22-1.441,3.365-3.364l1.168-15.453c0.839,1.313,1.679,2.625,2.519,3.938c1.177,1.842,2.354,3.682,3.532,5.522
	c-0.445,2.173-0.891,4.345-1.336,6.518c-0.303,1.479-0.605,2.958-0.908,4.438c-0.073,0.355-0.146,0.71-0.219,1.065
	c-0.146,0.714,0.056,1.277,0.524,1.797c2.378,2.642,4.757,5.282,7.134,7.923c0.588,0.652,1.68,0.597,2.276,0
	c0.644-0.644,0.586-1.624,0-2.274c-2.222-2.467-4.443-4.935-6.665-7.401c0.435-2.122,0.868-4.242,1.303-6.363
	c0.303-1.479,0.605-2.958,0.908-4.438c0.165-0.803,0.491-1.744,0.015-2.488c-2.603-4.069-5.204-8.139-7.807-12.208
	c2.116,1.499,4.231,2.998,6.348,4.497c1.339,0.947,2.676,1.896,4.015,2.845c0.617,3.728,1.234,7.455,1.852,11.183
	c0.092,0.564,0.629,0.949,1.124,1.124c2.747,0.969,5.495,1.937,8.242,2.906c0.827,0.291,1.759-0.323,1.979-1.124
	c0.245-0.89-0.298-1.688-1.124-1.979c-2.415-0.853-4.831-1.703-7.248-2.556c-0.376-2.278-0.754-4.558-1.132-6.837
	c-0.207-1.255-0.416-2.51-0.623-3.766c-0.089-0.544-0.323-0.937-0.811-1.28c-0.166-0.117-0.332-0.234-0.498-0.354
	c-3.612-2.559-7.225-5.118-10.837-7.676c7.789,2.674,19.768,5.986,23.675,2.674C79.256,36.175,88.915,26.154,79.746,26.573z"/>
</svg>
